<?xml version="1.0" encoding="UTF-8" standalone="no"?>
<!-- Created with Inkscape (http://www.inkscape.org/) -->

<svg
   xmlns:dc="http://purl.org/dc/elements/1.1/"
   xmlns:cc="http://creativecommons.org/ns#"
   xmlns:rdf="http://www.w3.org/1999/02/22-rdf-syntax-ns#"
   xmlns:svg="http://www.w3.org/2000/svg"
   xmlns="http://www.w3.org/2000/svg"
   xmlns:sodipodi="http://sodipodi.sourceforge.net/DTD/sodipodi-0.dtd"
   xmlns:inkscape="http://www.inkscape.org/namespaces/inkscape"
   id="svg2985"
   version="1.1"
   inkscape:version="0.48.5 r10040"
   width="400"
   height="400"
   xml:space="preserve"
   sodipodi:docname="pythonph-logo.svg"><metadata
     id="metadata2991"><rdf:RDF><cc:Work
         rdf:about=""><dc:format>image/svg+xml</dc:format><dc:type
           rdf:resource="http://purl.org/dc/dcmitype/StillImage" /><dc:title /></cc:Work></rdf:RDF></metadata><defs
     id="defs2989"><clipPath
       clipPathUnits="userSpaceOnUse"
       id="clipPath2999"><path
         d="M 0,256 256,256 256,0 0,0 0,256 z"
         id="path3001"
         inkscape:connector-curvature="0" /></clipPath></defs><sodipodi:namedview
     pagecolor="#ffffff"
     bordercolor="#666666"
     borderopacity="1"
     objecttolerance="10"
     gridtolerance="10"
     guidetolerance="10"
     inkscape:pageopacity="0"
     inkscape:pageshadow="2"
     inkscape:window-width="1920"
     inkscape:window-height="1017"
     id="namedview2987"
     showgrid="true"
     inkscape:zoom="1"
     inkscape:cx="338.41372"
     inkscape:cy="58.877872"
     inkscape:window-x="-8"
     inkscape:window-y="-8"
     inkscape:window-maximized="1"
     inkscape:current-layer="g2993"><inkscape:grid
       type="xygrid"
       id="grid3055"
       empspacing="5"
       visible="true"
       enabled="true"
       snapvisiblegridlinesonly="true"
       spacingx="8px"
       spacingy="8px" /></sodipodi:namedview><g
     id="g2993"
     inkscape:groupmode="layer"
     inkscape:label="logo"
     transform="matrix(1.25,0,0,-1.25,0,400)"><g
       id="g2995"
       transform="translate(32,52.1039)"><g
         id="g2997"
         clip-path="url(#clipPath2999)"><g
           id="g3003"
           transform="translate(177.2832,105.373)"><path
             d="m 0,0 c 0,-12.839 -5.537,-23.002 -13.898,-23.002 l -35.215,0 0,-3.389 23.711,0 0,-10.775 c -10e-4,-5.131 -1.619,-11.241 -21.943,-11.24 l -4.646,0 c -20.324,0 -22.526,6.108 -22.525,11.24 l 0,24.156 c -10e-4,7.192 6.045,13.717 13.234,13.717 l 26.943,0 c 7.189,0 12.322,5.11 12.323,12.3 l -0.001,14.798 8.119,-0.001 C -5.537,27.805 0,15.626 0,2.787 L 0,0 z m -77.904,-8.207 0,-14.795 -6.423,-0.001 c -8.362,0 -15.592,12.179 -15.592,25.017 l 0,2.789 c 0,12.837 7.23,23.001 15.592,23.002 l 33.52,0 0,3.386 -23.709,0 0,10.775 c 0,5.132 3.311,11.242 23.635,11.242 l 4.645,0 c 20.325,0 20.834,-6.11 20.834,-11.242 l 0,-24.156 c 0,-7.191 -4.353,-13.715 -11.542,-13.715 l -26.943,0 C -71.076,4.094 -77.904,-1.016 -77.904,-8.207 M 41.283,-7.479 52.588,2.522 41.283,12.658 14.478,9.709 c -0.191,1.667 -0.443,3.328 -0.763,4.98 l 22.958,3.293 -7.198,5.871 -17.088,-3.656 c -1.359,4.716 -3.26,9.306 -5.718,13.67 l 14.905,9.065 1.005,9.172 L 3.681,38.665 C 2.73,40.048 1.724,41.401 0.652,42.722 L 21.741,59.458 22.671,74.519 7.508,73.693 -9.365,52.662 c -1.323,1.05 -2.674,2.043 -4.057,2.977 L 0.479,74.202 -8.758,73.266 -18.255,58.599 c -4.382,2.423 -8.985,4.294 -13.71,5.614 l 4.123,16.951 -5.778,7.2 -3.858,-22.869 c -1.66,0.309 -3.33,0.547 -5.004,0.728 l 3.08,26.756 -9.996,11.293 -10.132,-11.3 2.936,-26.802 c -1.665,-0.19 -3.323,-0.441 -4.973,-0.759 l -3.296,22.951 -5.868,-7.198 3.65,-17.082 c -4.714,-1.357 -9.305,-3.263 -13.67,-5.718 l -9.062,14.902 -9.17,1.002 13.436,-18.894 c -1.384,-0.949 -2.738,-1.956 -4.056,-3.027 l -16.73,21.086 -15.07,0.92 0.829,-15.161 21.036,-16.86 c -1.055,-1.323 -2.05,-2.677 -2.985,-4.061 l -18.553,13.904 0.931,-9.242 14.662,-9.493 c -2.422,-4.379 -4.288,-8.985 -5.611,-13.709 l -16.951,4.116 -7.197,-5.777 22.868,-3.851 c -0.31,-1.662 -0.553,-3.338 -0.731,-5.018 l -26.749,3.086 -11.3,-9.992 11.306,-10.141 26.797,2.946 c 0.192,-1.67 0.444,-3.332 0.765,-4.981 l -22.955,-3.292 7.196,-5.868 17.089,3.646 c 1.357,-4.714 3.259,-9.301 5.715,-13.663 l -14.904,-9.065 -1.001,-9.172 18.894,13.44 c 0.949,-1.383 1.958,-2.736 3.027,-4.062 l -21.085,-16.728 -0.924,-15.066 15.16,0.826 16.875,21.028 c 1.318,-1.051 2.673,-2.041 4.051,-2.979 l -13.901,-18.557 9.238,0.936 9.5,14.663 c 4.38,-2.426 8.984,-4.294 13.712,-5.613 l -4.129,-16.947 5.776,-7.199 3.863,22.867 c 1.661,-0.305 3.33,-0.55 5.005,-0.727 l -3.082,-26.753 9.997,-11.303 10.142,11.307 -2.942,26.807 c 1.663,0.19 3.321,0.443 4.969,0.757 l 3.294,-22.955 5.864,7.194 -3.643,17.091 c 4.71,1.361 9.301,3.264 13.665,5.721 l 9.065,-14.91 9.167,-1.002 -13.437,18.902 c 1.386,0.948 2.743,1.957 4.062,3.028 L 7.762,-68.628 22.83,-69.539 22.002,-54.386 0.972,-37.51 c 1.056,1.319 2.046,2.672 2.977,4.057 l 18.561,-13.908 -0.933,9.238 -14.664,9.497 c 2.421,4.386 4.291,8.989 5.608,13.716 l 16.954,-4.131 7.198,5.779 -22.868,3.858 c 0.306,1.664 0.55,3.332 0.726,5.009 l 26.752,-3.084 z m -77.054,-34.796 c 2.628,0 4.761,2.132 4.761,4.763 0,2.628 -2.134,4.761 -4.761,4.76 -2.63,0.001 -4.762,-2.131 -4.762,-4.76 0,-2.633 2.132,-4.763 4.762,-4.763 m -26.684,89.351 c -2.628,0 -4.761,-2.133 -4.761,-4.763 0,-2.629 2.133,-4.76 4.761,-4.761 2.63,10e-4 4.762,2.132 4.762,4.761 0,2.631 -2.132,4.763 -4.762,4.763"
             style="fill:#fdd649;fill-opacity:1;fill-rule:nonzero;stroke:none"
             id="path3005"
             inkscape:connector-curvature="0" /></g><g
           id="g3007"
           transform="translate(23.3027,3.0781)"><path
             d="m 0,0 3.569,10.525 -6.647,8.908 11.114,-0.142 6.417,9.073 3.299,-10.612 10.613,-3.3 L 19.291,8.035 19.433,-3.078 10.525,3.569 0,0 z"
             style="fill:#fdd649;fill-opacity:1;fill-rule:nonzero;stroke:none"
             id="path3009"
             inkscape:connector-curvature="0" /></g><g
           id="g3011"
           transform="translate(127.3872,256)"><path
             d="m 0,0 4.919,-9.967 10.998,-1.597 -7.959,-7.759 1.879,-10.954 -9.837,5.173 -9.837,-5.172 1.879,10.954 -7.959,7.758 10.999,1.597 L 0,0 z"
             style="fill:#fdd649;fill-opacity:1;fill-rule:nonzero;stroke:none"
             id="path3013"
             inkscape:connector-curvature="0" /></g><g
           id="g3015"
           transform="translate(232.6973,3.0781)"><path
             d="m 0,0 -10.525,3.568 -8.907,-6.646 0.141,11.113 -9.073,6.417 10.612,3.299 3.3,10.613 L -8.035,19.29 3.078,19.432 -3.568,10.525 0,0 z"
             style="fill:#fdd649;fill-opacity:1;fill-rule:nonzero;stroke:none"
             id="path3017"
             inkscape:connector-curvature="0" /></g></g></g></g></svg>